<?xml version="1.0" encoding="utf-8"?>
<!-- Generator: Adobe Illustrator 22.0.1, SVG Export Plug-In . SVG Version: 6.00 Build 0)  -->
<svg version="1.1" id="Layer_1" xmlns="http://www.w3.org/2000/svg" xmlns:xlink="http://www.w3.org/1999/xlink" x="0px" y="0px"
	 viewBox="0 0 512 512" style="enable-background:new 0 0 512 512;" xml:space="preserve">
<style type="text/css">
	.st0{fill:#244462;}
	.st1{fill:none;}
	.st2{fill:#FFFFFF;}
	.st3{opacity:0.5;}
	.st4{fill-rule:evenodd;clip-rule:evenodd;fill:#155778;}
	.st5{fill:#155778;}
	.st6{clip-path:url(#SVGID_4_);}
	.st7{clip-path:url(#SVGID_4_);fill:#155778;}
	.st8{fill-rule:evenodd;clip-rule:evenodd;fill:#155778;stroke:#FFFFFF;stroke-miterlimit:10;}
	.st9{fill-rule:evenodd;clip-rule:evenodd;fill:#FFFFFF;}
	.st10{fill-rule:evenodd;clip-rule:evenodd;fill:#155778;stroke:#FFFFFF;stroke-width:0.5;stroke-miterlimit:10;}
	.st11{fill:#155778;stroke:#FFFFFF;stroke-width:0.5;stroke-miterlimit:10;}
	.st12{fill-rule:evenodd;clip-rule:evenodd;fill:url(#SVGID_7_);}
	.st13{fill-rule:evenodd;clip-rule:evenodd;fill:url(#SVGID_8_);}
	.st14{fill-rule:evenodd;clip-rule:evenodd;fill:url(#SVGID_9_);}
	.st15{fill-rule:evenodd;clip-rule:evenodd;fill:url(#SVGID_10_);}
	.st16{fill-rule:evenodd;clip-rule:evenodd;fill:url(#SVGID_11_);}
	.st17{fill-rule:evenodd;clip-rule:evenodd;fill:url(#SVGID_12_);}
	.st18{fill-rule:evenodd;clip-rule:evenodd;fill:url(#SVGID_13_);}
	.st19{fill-rule:evenodd;clip-rule:evenodd;fill:url(#SVGID_14_);}
	.st20{fill-rule:evenodd;clip-rule:evenodd;fill:none;}
	.st21{fill-rule:evenodd;clip-rule:evenodd;fill:url(#SVGID_15_);}
	.st22{fill-rule:evenodd;clip-rule:evenodd;fill:url(#SVGID_16_);}
	.st23{fill-rule:evenodd;clip-rule:evenodd;fill:url(#SVGID_17_);}
	.st24{fill-rule:evenodd;clip-rule:evenodd;fill:url(#SVGID_18_);}
	.st25{fill-rule:evenodd;clip-rule:evenodd;fill:url(#SVGID_19_);}
	.st26{fill-rule:evenodd;clip-rule:evenodd;fill:url(#SVGID_20_);}
	.st27{fill-rule:evenodd;clip-rule:evenodd;fill:url(#SVGID_21_);}
	.st28{fill-rule:evenodd;clip-rule:evenodd;fill:url(#SVGID_22_);}
	.st29{fill:url(#SVGID_23_);}
	.st30{fill:#231F20;}
	.st31{fill:url(#SVGID_24_);}
	.st32{fill:url(#SVGID_25_);}
	.st33{fill:url(#SVGID_26_);}
	.st34{fill:url(#SVGID_27_);}
	.st35{fill-rule:evenodd;clip-rule:evenodd;fill:url(#SVGID_28_);}
	.st36{fill-rule:evenodd;clip-rule:evenodd;fill:#58595B;}
	.st37{fill:url(#SVGID_29_);}
	.st38{fill-rule:evenodd;clip-rule:evenodd;fill:url(#SVGID_30_);}
	.st39{fill-rule:evenodd;clip-rule:evenodd;fill:url(#SVGID_31_);}
	.st40{fill-rule:evenodd;clip-rule:evenodd;fill:url(#SVGID_32_);}
	.st41{fill-rule:evenodd;clip-rule:evenodd;fill:url(#SVGID_33_);}
	.st42{fill-rule:evenodd;clip-rule:evenodd;fill:url(#SVGID_34_);}
	.st43{fill-rule:evenodd;clip-rule:evenodd;fill:url(#SVGID_35_);}
	.st44{fill-rule:evenodd;clip-rule:evenodd;fill:url(#SVGID_36_);}
	.st45{fill-rule:evenodd;clip-rule:evenodd;fill:url(#SVGID_37_);}
	.st46{fill:url(#SVGID_38_);}
	.st47{fill:url(#SVGID_39_);}
	.st48{fill-rule:evenodd;clip-rule:evenodd;fill:url(#SVGID_40_);}
	.st49{fill-rule:evenodd;clip-rule:evenodd;fill:url(#SVGID_41_);}
	.st50{fill-rule:evenodd;clip-rule:evenodd;fill:url(#SVGID_42_);}
	.st51{fill-rule:evenodd;clip-rule:evenodd;fill:url(#SVGID_43_);}
	.st52{fill-rule:evenodd;clip-rule:evenodd;fill:#404041;}
	.st53{fill-rule:evenodd;clip-rule:evenodd;fill:url(#SVGID_44_);}
	.st54{fill-rule:evenodd;clip-rule:evenodd;fill:url(#SVGID_45_);}
	.st55{fill-rule:evenodd;clip-rule:evenodd;fill:url(#SVGID_46_);}
	.st56{fill-rule:evenodd;clip-rule:evenodd;fill:#F26B28;}
	.st57{fill-rule:evenodd;clip-rule:evenodd;fill:url(#SVGID_47_);}
	.st58{fill-rule:evenodd;clip-rule:evenodd;fill:#2364AE;}
	.st59{fill-rule:evenodd;clip-rule:evenodd;fill:url(#SVGID_48_);}
	.st60{fill-rule:evenodd;clip-rule:evenodd;fill:#2D618E;}
	.st61{fill-rule:evenodd;clip-rule:evenodd;fill:url(#SVGID_49_);}
	.st62{fill:url(#SVGID_50_);}
	.st63{fill:url(#SVGID_51_);}
	.st64{fill:url(#SVGID_52_);}
	.st65{fill:url(#SVGID_53_);}
	.st66{fill:url(#SVGID_54_);}
	.st67{fill:url(#SVGID_55_);}
	.st68{fill:url(#SVGID_56_);}
	.st69{fill:url(#SVGID_57_);}
	.st70{fill:url(#SVGID_58_);}
	.st71{fill:url(#SVGID_59_);stroke:#EED812;stroke-width:0.3549;stroke-miterlimit:10;}
	.st72{fill:url(#SVGID_60_);stroke:#EED812;stroke-width:0.3549;stroke-miterlimit:10;}
	.st73{fill:url(#SVGID_61_);}
	.st74{fill:url(#SVGID_62_);}
	.st75{fill:url(#SVGID_63_);}
	.st76{fill:url(#SVGID_64_);}
	.st77{fill:url(#SVGID_65_);}
	.st78{fill-rule:evenodd;clip-rule:evenodd;fill:url(#SVGID_66_);}
	.st79{fill:url(#SVGID_67_);}
	.st80{fill:url(#SVGID_68_);}
	.st81{fill:url(#SVGID_69_);}
	.st82{fill:url(#SVGID_70_);}
	.st83{fill:url(#SVGID_71_);}
	.st84{fill:url(#SVGID_72_);}
	.st85{fill:url(#SVGID_73_);}
	.st86{fill:url(#SVGID_74_);}
	.st87{fill:url(#SVGID_75_);}
	.st88{fill:url(#SVGID_76_);}
	.st89{fill:url(#SVGID_77_);}
	.st90{fill:#37B34A;}
	.st91{fill:url(#SVGID_78_);}
	.st92{clip-path:url(#SVGID_82_);}
	.st93{fill:url(#SVGID_83_);}
	.st94{fill:url(#SVGID_84_);}
	.st95{fill:url(#SVGID_85_);}
	.st96{fill-rule:evenodd;clip-rule:evenodd;fill:#0E2149;}
	.st97{fill-rule:evenodd;clip-rule:evenodd;fill:url(#SVGID_88_);}
	.st98{fill:url(#SVGID_89_);}
	.st99{fill:url(#SVGID_90_);}
	.st100{fill:url(#SVGID_91_);}
	.st101{fill:url(#SVGID_92_);}
	.st102{fill:url(#SVGID_93_);}
	.st103{fill:url(#SVGID_94_);}
	.st104{fill:url(#SVGID_95_);}
	.st105{fill:url(#SVGID_96_);}
	.st106{fill:url(#SVGID_97_);}
	.st107{fill-rule:evenodd;clip-rule:evenodd;fill:url(#SVGID_98_);}
	.st108{fill-rule:evenodd;clip-rule:evenodd;fill:url(#SVGID_99_);}
	.st109{fill-rule:evenodd;clip-rule:evenodd;fill:url(#SVGID_100_);}
	.st110{fill-rule:evenodd;clip-rule:evenodd;fill:url(#SVGID_101_);}
	.st111{fill-rule:evenodd;clip-rule:evenodd;fill:url(#SVGID_102_);}
	.st112{fill-rule:evenodd;clip-rule:evenodd;fill:url(#SVGID_103_);}
	.st113{fill-rule:evenodd;clip-rule:evenodd;fill:#9FC9EB;}
	.st114{fill-rule:evenodd;clip-rule:evenodd;fill:#7ABAE6;}
	.st115{fill:url(#SVGID_104_);}
	.st116{fill:#FAAF40;}
	.st117{fill-rule:evenodd;clip-rule:evenodd;fill:url(#SVGID_105_);}
	.st118{fill-rule:evenodd;clip-rule:evenodd;fill:url(#SVGID_106_);}
	.st119{fill:url(#SVGID_107_);}
	.st120{fill:url(#SVGID_108_);}
	.st121{fill:url(#SVGID_109_);}
	.st122{fill:url(#SVGID_110_);}
	.st123{fill:url(#SVGID_111_);}
	.st124{fill:url(#SVGID_112_);}
	.st125{fill:#0E2149;}
	.st126{fill:url(#SVGID_113_);}
	.st127{fill:url(#SVGID_114_);}
	.st128{fill:url(#SVGID_115_);}
	.st129{fill:url(#SVGID_116_);}
	.st130{fill:url(#SVGID_117_);}
	.st131{fill:url(#SVGID_118_);}
	.st132{fill-rule:evenodd;clip-rule:evenodd;fill:#EC1A57;}
	.st133{fill-rule:evenodd;clip-rule:evenodd;fill:#90278E;}
	.st134{fill-rule:evenodd;clip-rule:evenodd;fill:url(#SVGID_119_);}
	.st135{fill-rule:evenodd;clip-rule:evenodd;fill:url(#SVGID_120_);}
	.st136{fill:#4560AB;}
	.st137{fill:url(#XMLID_62_);}
	.st138{fill:url(#XMLID_63_);}
	.st139{fill:url(#XMLID_64_);}
	.st140{fill:url(#XMLID_65_);}
	.st141{fill:url(#XMLID_66_);}
	.st142{fill:url(#XMLID_67_);}
	.st143{fill:url(#SVGID_121_);}
	.st144{fill:url(#SVGID_122_);}
	.st145{fill:url(#SVGID_123_);}
	.st146{fill:url(#SVGID_124_);}
	.st147{fill:url(#SVGID_125_);}
	.st148{fill:url(#SVGID_126_);}
	.st149{fill:url(#SVGID_127_);}
	.st150{fill:url(#SVGID_128_);}
	.st151{fill:url(#SVGID_129_);}
	.st152{clip-path:url(#SVGID_133_);}
	.st153{clip-path:url(#SVGID_133_);fill:#155778;}
	.st154{fill:none;stroke:#155778;stroke-miterlimit:10;}
	.st155{fill-rule:evenodd;clip-rule:evenodd;}
	.st156{clip-path:url(#SVGID_139_);}
	.st157{fill-rule:evenodd;clip-rule:evenodd;stroke:#FFFFFF;stroke-width:4;stroke-miterlimit:10;}
	.st158{fill-rule:evenodd;clip-rule:evenodd;fill:#FFFFFF;stroke:#FFFFFF;stroke-width:4;stroke-miterlimit:10;}
	.st159{stroke:#FFFFFF;stroke-width:4;stroke-miterlimit:10;}
</style>
<g>
	<path class="st155" d="M167.2,348.5c-11.8-14.3-26.1-18.4-38-18c-14.5-1-23.6,4.6-31.6,20.2c49.8,30.7,51.3,80.7,76.8,98.8
		c13.8,9.8,37.8,8,56.8,14C327,477.8,375,438.3,399,395.5c9.6-39.9,22.3-72.3,10.8-134.7c-9.6-43.4-50-112-75.5-146.5
		c-12.2-16.4-25.2-32.9-41.7-46.3c-9.2-8.5-19-11-26.1-4.2c-3.5,3.3-4.5,6.4-4,9.4c8.9,9.7,17.6,19.6,26,29.8
		c23.1,27.9,66.5,87.1,82.4,117.2c0.8,1.5,0.2,3.3-1.3,4.1c-1.5,0.8-3.3,0.2-4.1-1.3c-15.6-29.7-58.8-88.5-81.7-116.2
		c-17.6-21.3-36.5-41.6-55.6-60.3c-13.9-4.9-29.2,11.3-24.8,23.4c42,38.6,106.5,110.7,139.2,165.5c0.9,1.4,0.4,3.3-1,4.2
		c-1.5,0.9-3.3,0.4-4.2-1.1c-31.1-52.1-93.4-122.7-133.5-159.9c-15.8-7.7-32.4,10.4-23.6,25.5c10.2,14.4,68.9,81,90.2,108.8
		c1.6,0.7,3.2,1.5,4.7,2.4l0.2,0.1c16.8,9,30.6,22.5,41.3,38.5c0.9,1.4,0.5,3.3-0.9,4.2c-1.4,0.9-3.3,0.5-4.2-0.9
		c-10.2-15.2-23.3-28-39.1-36.5l-0.1-0.1c-1.8-1-3.6-1.9-5.5-2.7c-0.6-0.2-1.1-0.5-1.7-0.7l-0.3-0.1c-0.8-0.3-1.5-0.6-2.3-1l-0.1,0
		l-0.1,0c-0.6-0.2-1.2-0.5-1.9-0.7c-11.5-4.2-24.2-6.4-38.1-5.9c-0.6,0-1.1-0.1-1.6-0.4c-22,0.9-43.8,8.9-62.6,23.2
		c-16.7,12.7-36.9,66.7-55.9,70c0.3,17.1,12.9,28.5,33.7,23.9c27.5-2.7,40.7-77.5,96.5-70c55.9,9.5,78.3,81.4,41.5,122.5
		C236.9,413.3,196.9,396,167.2,348.5z"/>
</g>
</svg>
